<svg xmlns="http://www.w3.org/2000/svg" xmlns:xlink="http://www.w3.org/1999/xlink" viewBox="0 0 128.919 76.798">
  <defs>
    <style>
      .cls-1 {
        fill: none;
      }

      .cls-2 {
        fill: #fff;
      }

      .cls-3 {
        clip-path: url(#clip-path);
      }
    </style>
    <clipPath id="clip-path">
      <path id="Clip_14" data-name="Clip 14" class="cls-1" d="M0,0H128.919V66.421H0Z" transform="translate(0 0.284)"/>
    </clipPath>
  </defs>
  <g id="Group_17" data-name="Group 17" transform="translate(0 -0.552)">
    <path id="Fill_1" data-name="Fill 1" class="cls-2" d="M0,0V42.648H21.265V35.441H8.151V0Z" transform="translate(10.816 22.808)"/>
    <path id="Fill_2" data-name="Fill 2" class="cls-2" d="M22.328,7.206V0H0V42.648H22.918V35.441H8.151V24.218h10.81V17.012H8.151V7.206Z" transform="translate(36.364 22.808)"/>
    <g id="Group_16" data-name="Group 16" transform="translate(0 0.17)">
      <path id="Fill_3" data-name="Fill 3" class="cls-2" d="M11.341,42.647H0V0H11.341c4.862,0,8.4,1.1,10.81,3.352,2.569,2.4,3.9,6.136,4.076,11.415V27.88c-.174,5.279-1.507,9.013-4.076,11.415C19.739,41.551,16.2,42.647,11.341,42.647ZM8.152,7.206V35.441h2.835c4.9,0,7.087-2.623,7.087-8.506V15.712c0-3.093-.521-5.162-1.639-6.513s-2.857-1.993-5.449-1.993Z" transform="translate(64.341 22.638)"/>
      <path id="Fill_5" data-name="Fill 5" class="cls-2" d="M22.327,7.206V0H0V42.648H22.918V35.441H8.151V24.218h10.81V17.012H8.151V7.206Z" transform="translate(95.768 22.638)"/>
      <path id="Fill_7" data-name="Fill 7" class="cls-2" d="M2.805,12.583H5.211V2.126H8.017V0H0V2.126H2.805Z" transform="translate(51.427 0.381)"/>
      <path id="Fill_9" data-name="Fill 9" class="cls-2" d="M2.4,7.145H5.8v5.437h2.4V0H5.8V5.019H2.4V0H0V12.582H2.4Z" transform="translate(60.764 0.382)"/>
      <path id="Fill_11" data-name="Fill 11" class="cls-2" d="M6.763,10.457H2.406V7.146H5.595V5.019H2.406V2.126H6.588V0H0V12.583H6.763Z" transform="translate(70.759 0.382)"/>
      <g id="Group_15" data-name="Group 15" transform="translate(0 10.474)">
        <path id="Clip_14-2" data-name="Clip 14" class="cls-1" d="M0,0H128.919V66.421H0Z" transform="translate(0 0.284)"/>
        <g id="Group_15-2" data-name="Group 15" class="cls-3">
          <path id="Fill_13" data-name="Fill 13" class="cls-2" d="M82.395,0V2.205h44.32V64.216H2.205V2.205H49.34V0H0V66.421H128.92V0Z" transform="translate(0 0.284)"/>
        </g>
      </g>
    </g>
  </g>
</svg>
